<?xml version="1.0" encoding="UTF-8"?>
<svg width="52px" height="48px" viewBox="0 0 52 48" version="1.1" xmlns="http://www.w3.org/2000/svg" xmlns:xlink="http://www.w3.org/1999/xlink">
    <!-- Generator: sketchtool 51.3 (57544) - http://www.bohemiancoding.com/sketch -->
    <title>261ADFF2-AE5D-40C6-8946-8FAE0DCB6F91@2x</title>
    <desc>Created with sketchtool.</desc>
    <defs></defs>
    <g id="UI" stroke="none" stroke-width="1" fill="none" fill-rule="evenodd">
        <g id="Project-Details-" transform="translate(-159.000000, -2301.000000)" fill="#FF8C00">
            <g id="Group-4" transform="translate(159.000000, 2208.000000)">
                <g id="Group-8" transform="translate(26.000000, 117.000000) scale(-1, -1) translate(-26.000000, -117.000000) translate(0.000000, 93.000000)">
                    <path d="M6.07199818,47.0572161 L3.99863295,44.7617421 C2.96195033,43.6140051 3.25814536,41.9743809 4.29482798,40.9906063 C5.77580314,39.8428693 14.3654591,32.4645602 14.3654591,20.9871904 C14.2173616,20.9871904 12.2920939,21.8070026 9.92253361,21.8070026 C4.4429255,21.8070026 0,17.0520922 0,10.9854825 C0,4.91887276 4.4429255,0 10.5149237,0 C15.8464343,0 22.8070175,4.09906063 22.8070175,17.5439795 C22.8070175,33.6122972 13.3287765,43.4500427 9.47824106,47.2211785 C8.29346093,48.204953 7.25677831,48.3689155 6.07199818,47.0572161 Z" id="’"></path>
                    <path d="M35.2649806,47.0572161 L33.1916154,44.7617421 C32.1549328,43.6140051 32.4511278,41.9743809 33.4878104,40.9906063 C34.9687856,39.8428693 43.5584416,32.4645602 43.5584416,20.9871904 C43.410344,20.9871904 41.4850763,21.8070026 39.1155161,21.8070026 C33.635908,21.8070026 29.1929825,17.0520922 29.1929825,10.9854825 C29.1929825,4.91887276 33.635908,0 39.7079061,0 C45.0394167,0 52,4.09906063 52,17.5439795 C52,33.6122972 42.5217589,43.4500427 38.6712235,47.2211785 C37.4864434,48.204953 36.4497608,48.3689155 35.2649806,47.0572161 Z" id="’-copy"></path>
                </g>
            </g>
        </g>
    </g>
</svg>